<?xml version="1.0" encoding="utf-8"?>
<!-- Generator: Adobe Illustrator 15.1.0, SVG Export Plug-In . SVG Version: 6.00 Build 0)  -->
<!DOCTYPE svg PUBLIC "-//W3C//DTD SVG 1.1//EN" "http://www.w3.org/Graphics/SVG/1.1/DTD/svg11.dtd">
<svg version="1.1" id="Layer_1" xmlns="http://www.w3.org/2000/svg" xmlns:xlink="http://www.w3.org/1999/xlink" x="0px" y="0px"
	 width="360px" height="360px" viewBox="0 0 360 360" enable-background="new 0 0 360 360" xml:space="preserve">
<g>
	<path style="fill:#777777;" fill-rule="evenodd" clip-rule="evenodd" d="M-217.987,179.752c-28.99,44.951-82.549,82.9-151.986,82.9
		c-69.225,0-121.352-38.025-151.985-80.926c26.925-42.335,74.358-78.279,138.169-82.903
		C-308.051,93.335-249.93,133.864-217.987,179.752z M-251.542,158.039c-30.625-27.111-81.355-51.467-140.143-45.398
		c-41.031,4.237-76.182,26.866-94.744,47.373C-426.508,130.861-308.875,137.485-251.542,158.039z M-435.108,158.039
		c-22.91,72.904,63.314,115.869,110.533,75.006c17.916-15.504,27.209-42.764,19.74-75.006c-10.506-0.68-19.104-3.268-29.607-3.946
		c1.344,7.195,8.1,15.404,7.895,27.634c-0.992,58.725-87.734,50.43-86.85-1.974c0.092-5.504,2.24-11.166,3.949-15.791
		c0.723-1.961,8.379-8.365,1.973-9.869C-416.696,155.398-425.426,157.197-435.108,158.039z M-506.168,183.701
		c21.586,21.184,47.369,48.686,78.955,53.293c-19.293-14.404-27.703-42.936-23.686-75.007
		C-472.213,166.334-490.846,173.364-506.168,183.701z M-312.731,238.967c33.688-11.713,59.203-31.592,78.953-57.24
		c-17.949-7.052-33.641-16.363-55.266-19.74C-285.684,198.902-295.516,222.627-312.731,238.967z"/>
	<g>
	</g>
</g>
<g>
	<path style="fill:#777777;" d="M340.396,180.461c0-4.068-1.189-8.178-3.582-12.349c-16.705-27.454-39.182-49.437-67.396-65.972
		c-22.935-13.423-46.914-21.387-71.938-23.906c-3.451-0.753-6.982-1.283-10.581-1.583c-0.55-0.046-1.101-0.091-1.653-0.126
		c-0.557-0.037-1.115-0.069-1.675-0.095c-1.158-0.05-2.32-0.087-3.491-0.088c-0.027,0-0.054-0.002-0.081-0.002
		c-0.008,0-0.016,0-0.023,0c-0.015,0-0.029,0-0.043,0c-1.283,0-2.557,0.037-3.824,0.099c-0.153,0.007-0.308,0.011-0.461,0.019
		c-1.062,0.056-2.115,0.145-3.166,0.241c-0.809,0.076-1.614,0.165-2.417,0.265c-0.376,0.045-0.752,0.092-1.126,0.143
		c-2.157,0.292-4.287,0.664-6.387,1.121c-25.029,2.521-49.021,10.516-71.966,24c-28.229,16.589-50.691,38.55-67.395,65.886
		c-2.393,4.171-3.586,8.291-3.586,12.349c0,0.015,0.002,0.029,0.002,0.044s-0.002,0.029-0.002,0.044
		c0,4.058,1.193,8.178,3.586,12.349c16.703,27.336,39.166,49.297,67.395,65.886c28.227,16.586,58.031,24.877,89.408,24.877
		c31.393,0,61.197-8.271,89.424-24.791c28.215-16.535,50.691-38.518,67.396-65.972c2.393-4.171,3.582-8.28,3.582-12.349
		c0-0.015,0-0.029-0.002-0.044C340.396,180.49,340.396,180.476,340.396,180.461z M308.72,192.998
		c-0.225,0.299-0.449,0.6-0.676,0.896c-13.773,17.884-30.088,32.624-48.922,44.261c-2.801,1.679-5.645,3.292-8.551,4.809
		c-0.035,0.062-0.072,0.12-0.107,0.182c-21.873,11.719-45.361,17.599-70.471,17.599c-25.176,0-48.713-5.904-70.645-17.693
		c-0.035-0.064-0.076-0.126-0.111-0.19c-2.953-1.546-5.844-3.19-8.689-4.904c-18.686-11.595-34.887-26.269-48.58-44.047
		c-0.262-0.344-0.521-0.692-0.781-1.039c-0.45-0.592-0.893-1.19-1.336-1.788c-0.216-0.291-0.437-0.579-0.652-0.872
		c-2.257-3.106-4.455-6.309-6.584-9.611c-0.021-0.032-0.042-0.063-0.063-0.094c0.113-0.176,0.231-0.344,0.345-0.52
		c12.676-1.916,33.082-4.763,56.797-7.188c25.115-2.567,53.932-4.657,81.188-4.657c27.855,0,55.565,1.894,79.488,4.29
		c23.8,2.384,43.848,5.265,56.549,7.276c0.173,0.266,0.353,0.522,0.524,0.79c0.002,0.003,0.004,0.006,0.006,0.009
		c-2.15,3.337-4.367,6.569-6.648,9.707c-0.151,0.206-0.307,0.408-0.459,0.613C309.805,191.553,309.267,192.28,308.72,192.998z"/>
	<path style="fill:#777777;" d="M102.767,184.544c11.018,32.071,41.422,55.13,77.232,55.13c35.943,0,66.441-23.23,77.355-55.489
		c-23.148-2.274-49.749-4.044-76.472-4.044C154.729,180.141,127.085,182.1,102.767,184.544z"/>
</g>
</svg>
