<?xml version="1.0" encoding="utf-8"?>
<!-- Generator: Adobe Illustrator 22.0.0, SVG Export Plug-In . SVG Version: 6.00 Build 0)  -->
<svg version="1.1" id="Capa_1" xmlns="http://www.w3.org/2000/svg" xmlns:xlink="http://www.w3.org/1999/xlink" x="0px" y="0px"
	 viewBox="0 0 438.5 438.5" style="enable-background:new 0 0 438.5 438.5;" xml:space="preserve">
<style type="text/css">
	.st0{fill:#FFF40A;}
</style>
<g>
	<g>
		<path class="st0" d="M409.1,109.2c-19.6-33.6-46.2-60.2-79.8-79.8S259.1,0,219.3,0s-76.5,9.8-110.1,29.4S49,75.6,29.4,109.2
			S0,179.5,0,219.3s9.8,76.5,29.4,110.1s46.2,60.2,79.8,79.8s70.3,29.4,110.1,29.4s76.5-9.8,110.1-29.4s60.2-46.2,79.8-79.8
			s29.4-70.3,29.4-110.1C438.5,179.5,428.7,142.8,409.1,109.2z"/>
		<path d="M182.7,146.2"/>
	</g>
</g>
<g>
	<g>
		<path d="M409.1,109.2c-19.6-33.6-46.2-60.2-79.8-79.8C295.7,9.8,259.1,0,219.3,0s-76.5,9.8-110.1,29.4C75.6,49,49,75.6,29.4,109.2
			C9.8,142.8,0,179.5,0,219.3c0,39.8,9.8,76.5,29.4,110.1c19.6,33.6,46.2,60.2,79.8,79.8c33.6,19.6,70.3,29.4,110.1,29.4
			s76.5-9.8,110.1-29.4c33.6-19.6,60.2-46.2,79.8-79.8c19.6-33.6,29.4-70.3,29.4-110.1C438.5,179.5,428.7,142.8,409.1,109.2z
			 M387.4,290.2c-9.7,22.6-22.7,42-39,58.2c-16.3,16.3-35.7,29.3-58.2,39c-22.6,9.7-46.2,14.6-70.9,14.6s-48.4-4.9-70.9-14.6
			c-22.6-9.7-42-22.7-58.2-39c-16.3-16.3-29.3-35.7-39-58.2c-9.7-22.6-14.6-46.2-14.6-70.9c0-24.7,4.9-48.4,14.6-70.9
			c9.7-22.6,22.7-42,39-58.2c16.3-16.3,35.7-29.3,58.2-39c22.6-9.7,46.2-14.6,70.9-14.6c24.7,0,48.4,4.9,70.9,14.6
			c22.6,9.7,42,22.7,58.2,39c16.3,16.3,29.3,35.7,39,58.2c9.7,22.6,14.6,46.2,14.6,70.9C402,244,397.1,267.7,387.4,290.2z"/>
		<path d="M312.1,247.5c-4.8-1.5-9.4-1.1-14,1.1s-7.6,5.9-9.1,10.8c-4.8,15.2-13.6,27.6-26.4,37c-12.8,9.4-27.3,14.1-43.3,14.1
			c-16,0-30.4-4.7-43.3-14.1c-12.8-9.4-21.6-21.7-26.4-37c-1.5-4.9-4.5-8.6-9-10.8c-4.5-2.3-9.1-2.7-13.8-1.1
			c-4.9,1.5-8.6,4.5-10.8,9c-2.3,4.5-2.7,9.1-1.1,13.8c7,23,20.2,41.6,39.4,55.7c19.2,14.1,40.9,21.1,65.1,21.1
			c24.2,0,45.9-7,65.1-21.1c19.2-14.1,32.3-32.6,39.4-55.7c1.5-4.8,1.1-9.4-1.1-13.8C320.3,252.1,316.8,249.1,312.1,247.5z"/>
		<path d="M146.2,182.7c10.1,0,18.7-3.6,25.8-10.7c7.1-7.1,10.7-15.7,10.7-25.8c0-10.1-3.6-18.7-10.7-25.8s-15.8-10.7-25.8-10.7
			c-10.1,0-18.7,3.6-25.8,10.7c-7.1,7.1-10.7,15.7-10.7,25.8s3.6,18.7,10.7,25.8C127.5,179.2,136.1,182.7,146.2,182.7z"/>
		<path d="M292.4,109.6c-10.1,0-18.7,3.6-25.8,10.7c-7.1,7.1-10.7,15.7-10.7,25.8s3.6,18.7,10.7,25.8c7.1,7.1,15.8,10.7,25.8,10.7
			c10.1,0,18.7-3.6,25.8-10.7c7.1-7.1,10.7-15.7,10.7-25.8c0-10.1-3.6-18.7-10.7-25.8S302.4,109.6,292.4,109.6z"/>
	</g>
</g>
</svg>
